<svg width="256" height="256" viewBox="0 0 256 256" fill="none" xmlns="http://www.w3.org/2000/svg">
  <defs>
    <linearGradient id="bg" x1="32" y1="28" x2="224" y2="228" gradientUnits="userSpaceOnUse">
      <stop stop-color="#2b1a07"/>
      <stop offset="1" stop-color="#0f0c0a"/>
    </linearGradient>
    <radialGradient id="glow" cx="0" cy="0" r="1" gradientUnits="userSpaceOnUse" gradientTransform="translate(128 88) rotate(90) scale(104)">
      <stop stop-color="#dd901d" stop-opacity="0.35"/>
      <stop offset="1" stop-color="#dd901d" stop-opacity="0"/>
    </radialGradient>
  </defs>
  <rect width="256" height="256" rx="48" fill="url(#bg)"/>
  <rect x="32" y="32" width="192" height="192" rx="36" fill="url(#glow)"/>
  <circle cx="128" cy="100" r="38" fill="#f2d2b1"/>
  <path d="M80 214c0-26.51 21.49-48 48-48s48 21.49 48 48" fill="#f2d2b1"/>
  <path d="M86 100c10-32 32-48 42-48 18 0 40 16 44 48 2 15-1 28-4 36-8-9-18-15-40-15s-33 6-42 15c-3-8-6-21 0-36Z" fill="#2b2133"/>
  <path d="M94 112c5 0 10 5 10 11s-5 11-10 11-10-5-10-11 5-11 10-11Zm68 0c5 0 10 5 10 11s-5 11-10 11-10-5-10-11 5-11 10-11Z" fill="#3a2b42"/>
  <path d="M104 141c6 10 14 15 24 15s18-5 24-15" stroke="#7b4b28" stroke-width="6" stroke-linecap="round"/>
</svg>